<svg width="118" height="48" viewBox="0 0 118 48" fill="none" xmlns="http://www.w3.org/2000/svg">
<path d="M27.6487 31.1402C25.7334 29.2433 24.7773 26.8363 24.7773 23.916C24.7773 20.9957 25.7303 18.5919 27.6393 16.7045C29.5483 14.8076 31.8885 13.8575 34.6599 13.8575C37.4312 13.8575 39.7621 14.8076 41.6555 16.7045C43.552 18.6014 44.4987 21.0052 44.4987 23.9128C44.4987 26.8203 43.5489 29.2273 41.6523 31.137C39.7558 33.0339 37.425 33.9872 34.6599 33.9999C31.8979 34.0095 29.5608 33.0562 27.6518 31.1434L27.6487 31.1402ZM38.3436 28.0254C39.2653 27.0052 39.7277 25.6312 39.7246 23.9096C39.7246 22.188 39.259 20.814 38.3373 19.7906C37.4156 18.7704 36.1784 18.2571 34.6318 18.2571C33.0852 18.2571 31.851 18.7672 30.9293 19.7906C30.0076 20.8108 29.5452 22.1848 29.5483 23.9032C29.5483 25.6248 30.0139 26.9957 30.9356 28.0159C31.8604 29.0361 33.0946 29.5493 34.6411 29.5493C36.1877 29.5493 37.4187 29.0424 38.3436 28.0254Z" fill="#171D35"/>
<path d="M45.8977 17.7722V14.1346L61.0948 14.1219V17.7627H55.8239L55.8364 33.7733H51.1436V17.7595L45.8945 17.769L45.8977 17.7722Z" fill="#171D35"/>
<path d="M65.3264 31.1122C63.4112 29.2089 62.4551 26.7987 62.4551 23.888C62.4551 20.9772 63.408 18.5734 65.317 16.6797C67.2229 14.7828 69.5631 13.8327 72.3376 13.8327C75.1121 13.8327 77.4429 14.7828 79.3332 16.6797C81.2266 18.5702 82.1733 20.9677 82.1733 23.8784C82.1733 26.7891 81.2266 29.1961 79.3301 31.1026C77.4273 32.9995 75.0934 33.9528 72.3345 33.9623C69.5756 33.9719 67.2386 33.0219 65.3264 31.1154V31.1122ZM76.0213 27.9942C76.943 26.974 77.4054 25.6 77.4023 23.8816C77.4023 22.16 76.9368 20.7891 76.0151 19.769C75.0934 18.7488 73.8592 18.2355 72.3126 18.2355C70.766 18.2355 69.5319 18.7456 68.6102 19.769C67.6854 20.7891 67.2261 22.1632 67.2261 23.8848C67.2261 25.6064 67.6916 26.9772 68.6133 27.9974C69.5381 29.0176 70.7723 29.5309 72.3189 29.5309C73.8655 29.5309 75.0996 29.0208 76.0213 27.9974V27.9942Z" fill="#171D35"/>
<path d="M88.2362 26.1098V33.7516H83.5496L83.5371 14.097H91.1326C93.3665 14.097 95.1068 14.6805 96.3472 15.8473C97.547 16.9217 98.2281 18.4743 98.2156 20.1002C98.2 21.2862 97.847 22.4435 97.2033 23.4318C96.5284 24.5125 95.4224 25.2777 93.8852 25.7272L98.6062 33.7293H93.1197L88.7799 26.1066H88.2331L88.2362 26.1098ZM88.2362 17.741V22.4722H91.1419C91.7668 22.5072 92.3792 22.2745 92.8291 21.8282C93.2478 21.3691 93.4696 20.757 93.4415 20.1321C93.4634 19.4945 93.2291 18.876 92.7979 18.4137C92.3605 17.9578 91.7512 17.7123 91.1263 17.7442H88.2331L88.2362 17.741Z" fill="#171D35"/>
<path d="M111.352 33.7317H106.656V27.4065L99.9824 14.093H105.303L109.015 22.9623L112.683 14.0867H118.001L111.349 27.4161V33.7285L111.352 33.7317Z" fill="#171D35"/>
<path d="M23.4082 18.5632V13L11.8197 21.7258L0 13.0191L0.0124977 33.8182H4.47417L4.4648 23.0393L11.7135 27.9808L23.4082 18.5632Z" fill="#171D35"/>
<path d="M16.4277 27.5217L23.4108 22.2646V28.1753L16.4309 33.442V27.5217H16.4277Z" fill="#EC1D32"/>
<path d="M16.4277 27.5216C16.4277 27.63 20.1552 30.6364 20.1552 30.6364L16.434 33.4419V27.8564" fill="#AD1E2E"/>
<path d="M118 36H0V48H118V36Z" fill="#EC1D32"/>
<path d="M75.4309 47.0942C75.1447 46.8248 75 46.4922 75 46.0931C75 45.694 75.1447 45.3447 75.4309 45.0687C75.7171 44.7926 76.0888 44.6562 76.5428 44.6562C76.9967 44.6562 77.352 44.7926 77.6382 45.0687C77.9243 45.3447 78.0691 45.684 78.0691 46.0931C78.0691 46.5022 77.9243 46.8248 77.6382 47.0942C77.352 47.3636 76.9868 47.5 76.5428 47.5C76.0987 47.5 75.7204 47.3636 75.4309 47.0942Z" fill="white"/>
<path d="M79.8352 39.165C80.2892 38.3335 80.9207 37.6882 81.7299 37.2259C82.5392 36.7636 83.4602 36.5308 84.4865 36.5308C85.7464 36.5308 86.8221 36.8667 87.7201 37.5386C88.6148 38.2104 89.2168 39.1284 89.5194 40.2892H86.6773C86.4668 39.8402 86.1674 39.5009 85.7793 39.2648C85.3911 39.032 84.9503 38.9122 84.4569 38.9122C83.6609 38.9122 83.0161 39.1916 82.5227 39.7537C82.0293 40.3125 81.7826 41.0642 81.7826 41.9988C81.7826 42.9334 82.0293 43.6851 82.5227 44.2439C83.0161 44.8027 83.6609 45.0854 84.4569 45.0854C84.9503 45.0854 85.3911 44.969 85.7793 44.7328C86.1674 44.5 86.4668 44.1574 86.6773 43.7084H89.5194C89.2168 44.8692 88.6181 45.7839 87.7201 46.4524C86.8221 47.121 85.7464 47.4536 84.4865 47.4536C83.4602 47.4536 82.5392 47.2207 81.7299 46.7584C80.9207 46.2961 80.2859 45.6508 79.8352 44.826C79.3813 44.0011 79.1543 43.0598 79.1543 41.9988C79.1543 40.9378 79.3813 39.9965 79.8352 39.165Z" fill="white"/>
<path d="M93.3818 46.7809C92.5495 46.3119 91.8916 45.6567 91.4015 44.8185C90.9114 43.977 90.668 43.0324 90.668 41.9847C90.668 40.937 90.9114 39.9924 91.4015 39.1575C91.8884 38.3227 92.5495 37.6708 93.3818 37.2018C94.214 36.7328 95.1285 36.5 96.1252 36.5C97.1219 36.5 98.0364 36.7362 98.8686 37.2018C99.7009 37.6708 100.355 38.3227 100.832 39.1575C101.309 39.9924 101.55 40.9336 101.55 41.9847C101.55 43.0357 101.306 43.9803 100.823 44.8185C100.339 45.66 99.6844 46.3119 98.8587 46.7809C98.0331 47.2498 97.1219 47.4827 96.1219 47.4827C95.1219 47.4827 94.2107 47.2498 93.3785 46.7809H93.3818ZM98.1581 44.2464C98.668 43.6777 98.9213 42.9226 98.9213 41.9847C98.9213 41.0467 98.668 40.2817 98.1581 39.7163C97.6482 39.1509 96.9706 38.8682 96.1252 38.8682C95.2798 38.8682 94.5857 39.1475 94.0791 39.7097C93.5693 40.2684 93.316 41.0301 93.316 41.9847C93.316 42.9393 93.5693 43.6876 94.0791 44.2531C94.589 44.8185 95.2699 45.1012 96.1252 45.1012C96.9805 45.1012 97.6482 44.8152 98.1581 44.2464Z" fill="white"/>
<path d="M115.001 36.65V47.3766H112.415V40.944L110.044 47.3766H107.958L105.57 40.9273V47.3766H102.984V36.65H106.037L109.014 44.0771L111.961 36.65H114.998H115.001Z" fill="white"/>
</svg>
