<svg data-testid="logo-image" viewBox="0 0 371 77" fill="none" xmlns="http://www.w3.org/2000/svg"><path fill="#1A7DC4" fill-rule="evenodd" clip-rule="evenodd" d="M191.57 19.7192C191.534 21.4871 191.504 23.2158 191.474 24.9163C191.397 29.2788 191.324 33.4553 191.17 37.6288C190.879 45.4815 184.391 48.2167 178.817 50.3252C174.836 51.8311 170.46 52.292 165.943 52.7677C163.928 52.9799 161.886 53.1951 159.837 53.5073V0H191.57V19.7192ZM55.2953 54.7638C68.516 54.9253 81.7435 55.0869 94.934 54.4981C102.188 54.1743 126.273 51.3659 124.328 39.7205C123.111 39.7205 121.895 39.7267 120.678 39.733H120.677H120.677H120.677H120.677C118.136 39.7461 115.594 39.7591 113.055 39.7153C108.359 39.6342 105.976 37.3968 105.552 32.8088C104.897 25.7136 98.1966 21.8919 91.9658 19.9494C85.7089 17.9988 78.9518 17.0719 72.3729 16.8558C62.4652 16.5303 52.5443 16.602 42.6238 16.6737H42.6236H42.6234C38.8804 16.7008 35.1374 16.7278 31.3951 16.7335C30.5113 16.7349 29.6276 16.8264 28.8489 16.907L28.8487 16.907L28.8478 16.9071C28.5179 16.9413 28.2068 16.9735 27.9225 16.996V27.7205C31.4467 27.7205 34.9422 27.7193 38.4172 27.7181C47.1109 27.715 55.6761 27.7119 64.2413 27.7284C68.6587 27.7369 72.2174 29.1376 73.5562 33.8633L75.2157 39.7205C72.3326 39.7205 69.4392 39.7177 66.538 39.7149C57.7635 39.7063 48.9182 39.6977 40.0736 39.7666C38.1779 39.7814 36.1201 40.0394 34.4209 40.8103C23.1669 45.916 12.5947 52.1007 3.56273 60.7035C-5.91034 69.7264 5.56743 76.4905 14.0658 76.5845C32.8843 76.7926 51.7054 76.7623 70.5265 76.7319H70.5283C76.0298 76.7231 81.5313 76.7142 87.0327 76.7113C88.0213 76.7107 89.0099 76.6478 89.978 76.5861C90.4221 76.5578 90.8619 76.5298 91.2954 76.5082V66.7205C87.4346 66.7205 83.5921 66.7273 79.7631 66.7341H79.7617C68.805 66.7535 57.9597 66.7728 47.1164 66.6315C44.3156 66.595 41.4426 65.637 38.7826 64.6299C32.9488 62.421 43.4529 54.6358 46.4654 54.6642C49.4079 54.6918 52.3512 54.7278 55.2948 54.7638H55.295H55.2953ZM131.737 74.3354C134.617 74.7971 137.496 75.2587 140.845 75.7204C143.929 75.832 146.96 75.9587 149.956 76.084L149.957 76.084C155.917 76.3332 161.739 76.5767 167.564 76.6831C175.08 76.8204 182.6 76.7792 190.119 76.738H190.119C191.764 76.7289 193.409 76.7199 195.054 76.7128C196.629 76.7059 198.206 76.7128 199.782 76.7197C211.103 76.7693 222.403 76.8188 233.132 71.7715C233.92 71.4009 234.715 71.0407 235.508 70.6814C242.525 67.5023 249.391 64.3918 249.753 54.7205C257.913 54.7205 266.047 54.738 274.161 54.7554H274.161H274.162C296.393 54.8031 318.478 54.8506 340.558 54.5375C347.527 54.4387 354.588 52.4855 361.376 50.57C367.184 48.9312 370.526 44.086 370.065 39.7204C369.102 39.7204 368.135 39.7441 367.166 39.7678L367.165 39.7678C364.985 39.8211 362.796 39.8746 360.634 39.6598C360.253 39.622 359.86 39.5873 359.459 39.552C355.327 39.188 350.381 38.7523 349.964 34.0256C349.183 25.1689 342.851 22.695 336.712 20.2969C336.38 20.1673 336.049 20.0378 335.719 19.9075C330.718 17.9332 325.039 16.9903 319.631 16.8596C308.186 16.5832 296.732 16.6332 285.279 16.6832C280.796 16.7028 276.313 16.7224 271.831 16.7224V27.7205H277.003C279.88 27.7205 282.758 27.6974 285.637 27.6743C293.092 27.6146 300.548 27.5548 307.985 27.8962C311.208 28.0441 316.626 29.7814 317.025 31.6489C317.829 35.4105 318.521 38.0295 322.423 39.3851H249.553V33.9242H217.57C217.57 35.7102 217.576 37.4814 217.582 39.2419C217.598 43.8732 217.614 48.43 217.517 52.9845C217.48 54.7094 217.321 56.8475 216.325 58.0628C212.452 62.7842 207.376 65.5102 201.131 65.72C198.127 65.8209 195.123 65.9313 192.119 66.0417L192.117 66.0418C185.206 66.2958 178.295 66.5498 171.382 66.6881C168.558 66.7446 165.72 66.6669 162.883 66.5893C157.692 66.4472 152.507 66.3052 147.426 66.9868C143.56 67.5056 139.852 69.2095 136.144 70.9135L136.144 70.9136C134.489 71.674 132.835 72.4344 131.166 73.0894L131.737 74.3354ZM108.471 62.5849C108.216 62.4779 107.928 62.4814 107.675 62.5946L95.3995 68.0955C94.6467 68.4328 94.6031 69.4851 95.3253 69.8836L107.603 76.6574C107.895 76.8185 108.248 76.8234 108.544 76.6704L121.666 69.8978C122.421 69.5083 122.378 68.4152 121.594 68.0869L108.471 62.5849Z"></path></svg>