<svg width="92" height="48" viewBox="0 0 92 48" fill="none" xmlns="http://www.w3.org/2000/svg">
<g clip-path="url(#clip0_4146_87877)">
<path d="M92 36H0V48H92V36Z" fill="#EC1D32"/>
<path d="M3.00565 43.9587C3.00565 43.636 3.02259 43.3582 3.05648 43.1281C3.09036 42.898 3.15813 42.6959 3.25979 42.5248C3.35863 42.3536 3.49699 42.2077 3.66925 42.087C3.8415 41.9663 4.06458 41.8513 4.33285 41.7419C4.40062 41.3013 4.51922 40.9309 4.68582 40.6334C4.85243 40.3332 5.0388 40.0947 5.24776 39.9123C5.45673 39.7299 5.67416 39.598 5.90289 39.5194C6.13162 39.4408 6.34341 39.4016 6.53543 39.4016C6.81781 39.4016 7.0776 39.4521 7.3148 39.5559C7.55201 39.6597 7.74967 39.8028 7.91628 39.988C8.08288 40.1732 8.21278 40.3977 8.30597 40.6587C8.39915 40.9197 8.44716 41.2059 8.44716 41.5146C8.44716 42.1347 8.29185 42.623 7.98405 42.985C7.67625 43.347 7.21032 43.5266 6.58626 43.5266C5.9989 43.5266 5.38896 43.3189 4.75642 42.9064C4.61805 42.9766 4.51922 43.0944 4.45992 43.2628C4.40062 43.4311 4.37238 43.6697 4.37238 43.9811V47.5H3V43.9587H3.00565ZM7.17079 41.4809C7.17079 41.262 7.10584 41.0628 6.97312 40.8888C6.8404 40.7148 6.65403 40.625 6.41118 40.625C6.20222 40.625 6.00455 40.726 5.81535 40.9253C5.62333 41.1245 5.50191 41.4612 5.44543 41.9355C5.62616 42.0393 5.81253 42.1235 6.00737 42.188C6.20222 42.2526 6.36882 42.2862 6.50719 42.2862C6.70203 42.2862 6.86017 42.2133 6.98442 42.0646C7.10866 41.9158 7.17079 41.7222 7.17079 41.4809Z" fill="white"/>
<path d="M13.3409 43.4003C13.2448 44.1495 12.9342 44.6967 12.4118 45.0362C11.8894 45.3758 11.1044 45.5469 10.0596 45.5469H9.73766V44.287H9.97768C10.3391 44.287 10.6385 44.2673 10.8813 44.2253C11.1242 44.1832 11.3218 44.1242 11.4771 44.0457C11.6324 43.9671 11.7482 43.8745 11.8245 43.7679C11.9007 43.6612 11.9487 43.5406 11.9685 43.4003H11.3246C11.0197 43.4003 10.7401 43.3666 10.4831 43.2964C10.2262 43.2291 10.0059 43.1168 9.81955 42.9625C9.63318 42.8082 9.48634 42.6089 9.38468 42.3648C9.2802 42.1207 9.22937 41.826 9.22937 41.4837C9.22937 41.2087 9.27738 40.9365 9.37056 40.6671C9.46375 40.3977 9.59929 40.1592 9.78002 39.9459C9.96074 39.7326 10.181 39.5615 10.4436 39.4352C10.7062 39.3089 11.0056 39.2444 11.3444 39.2444C11.7256 39.2444 12.0447 39.3089 12.3017 39.4408C12.5587 39.5727 12.7704 39.7551 12.9286 39.9936C13.0867 40.2321 13.2025 40.5128 13.2703 40.8411C13.338 41.1666 13.3747 41.5286 13.3747 41.9186V42.2189H14.1344C14.1908 42.2189 14.2417 42.2245 14.2897 42.2357C14.3377 42.2469 14.38 42.2694 14.4196 42.3087C14.4591 42.348 14.4873 42.4041 14.5071 42.4798C14.5269 42.5556 14.5382 42.6594 14.5382 42.7885C14.5382 43.0242 14.5043 43.1842 14.4393 43.274C14.3744 43.3638 14.2727 43.4087 14.1315 43.4087H13.3409V43.4003ZM10.5566 41.3574C10.5566 41.6885 10.6272 41.913 10.7684 42.0337C10.9095 42.1543 11.0987 42.2133 11.3331 42.2133H12.0193V41.5931C12.0193 41.262 11.9685 40.9898 11.864 40.7737C11.7595 40.5577 11.5647 40.4482 11.2823 40.4482C11.0253 40.4482 10.8418 40.5352 10.726 40.7064C10.6102 40.8775 10.5537 41.0936 10.5537 41.3574H10.5566Z" fill="white"/>
<path d="M14.14 43.4003C14.0835 43.4003 14.0327 43.3947 13.9847 43.3834C13.9367 43.3722 13.8943 43.3498 13.8548 43.3105C13.8153 43.2712 13.787 43.2151 13.7673 43.1393C13.7475 43.0635 13.7362 42.9597 13.7362 42.8306C13.7362 42.5977 13.7701 42.435 13.835 42.3452C13.9 42.2554 14.0016 42.2105 14.1428 42.2105H15.679C15.7355 42.2105 15.7863 42.2161 15.8343 42.2273C15.8823 42.2385 15.9247 42.261 15.9642 42.3003C16.0037 42.3396 16.032 42.3957 16.0517 42.4714C16.0715 42.5472 16.0828 42.651 16.0828 42.7801C16.0828 43.0158 16.0489 43.1758 15.984 43.2656C15.919 43.3554 15.8174 43.4003 15.6762 43.4003H14.14Z" fill="white"/>
<path d="M15.679 43.4003C15.6225 43.4003 15.5716 43.3947 15.5236 43.3834C15.4756 43.3722 15.4333 43.3498 15.3937 43.3105C15.3542 43.2712 15.326 43.2151 15.3062 43.1393C15.2864 43.0635 15.2751 42.9597 15.2751 42.8306C15.2751 42.5977 15.309 42.435 15.374 42.3452C15.4389 42.2554 15.5406 42.2105 15.6818 42.2105H17.2179C17.2744 42.2105 17.3252 42.2161 17.3732 42.2273C17.4213 42.2385 17.4636 42.261 17.5031 42.3003C17.5427 42.3396 17.5709 42.3957 17.5907 42.4714C17.6105 42.5472 17.6217 42.651 17.6217 42.7801C17.6217 43.0158 17.5879 43.1758 17.5229 43.2656C17.458 43.3554 17.3563 43.4003 17.2151 43.4003H15.679Z" fill="white"/>
<path d="M17.2152 43.4003C17.1587 43.4003 17.1079 43.3947 17.0599 43.3834C17.0119 43.3722 16.9695 43.3498 16.93 43.3105C16.8905 43.2712 16.8622 43.2151 16.8425 43.1393C16.8227 43.0635 16.8114 42.9597 16.8114 42.8306C16.8114 42.5977 16.8453 42.435 16.9102 42.3452C16.9752 42.2554 17.0768 42.2105 17.218 42.2105H18.7542C18.8107 42.2105 18.8615 42.2161 18.9095 42.2273C18.9575 42.2385 18.9999 42.261 19.0394 42.3003C19.0789 42.3396 19.1072 42.3957 19.1269 42.4714C19.1467 42.5472 19.158 42.651 19.158 42.7801C19.158 43.0158 19.1241 43.1758 19.0592 43.2656C18.9942 43.3554 18.8926 43.4003 18.7514 43.4003H17.2152Z" fill="white"/>
<path d="M21.1713 42.2133C21.3154 42.2133 21.4565 42.1852 21.5864 42.1263C21.7163 42.0673 21.7841 41.9495 21.7841 41.7699C21.7841 41.6464 21.705 41.4781 21.5497 41.2704C21.3944 41.06 21.1883 40.8383 20.9313 40.6054C20.6743 40.3725 20.3835 40.1395 20.0588 39.9094C19.734 39.6793 19.4036 39.4773 19.0732 39.3061C19.1212 39.0788 19.1777 38.8908 19.2455 38.7449C19.3133 38.599 19.3782 38.4783 19.4488 38.3885C19.5166 38.2987 19.5844 38.2314 19.6521 38.1865C19.7171 38.1416 19.7707 38.1079 19.8131 38.0883L23.4389 36.5V37.8834L20.9878 38.8936V38.9245C21.4029 39.1939 21.7474 39.4577 22.0157 39.7186C22.2868 39.9796 22.5014 40.235 22.6651 40.4819C22.8289 40.7288 22.9391 40.9645 23.004 41.189C23.0661 41.4135 23.0972 41.6212 23.0972 41.8148C23.0972 41.9804 23.0746 42.1543 23.0294 42.3424C22.9842 42.5276 22.8967 42.7015 22.764 42.8587C22.6313 43.0186 22.4477 43.1477 22.2077 43.2515C21.9677 43.3554 21.6542 43.4059 21.2674 43.4059H18.7541C18.6977 43.4059 18.6468 43.4003 18.5988 43.389C18.5508 43.3778 18.5085 43.3554 18.4689 43.3161C18.4294 43.2768 18.4012 43.2207 18.3814 43.1449C18.3616 43.0691 18.3503 42.9653 18.3503 42.8362C18.3503 42.6033 18.3842 42.4406 18.4492 42.3508C18.5141 42.261 18.6158 42.2161 18.757 42.2161H21.177L21.1713 42.2133Z" fill="white"/>
<path d="M24.3706 41.812H26V43.4031H24.3706V41.812Z" fill="white"/>
<path d="M89.4848 11.8272C87.8121 10.18 85.7259 9.34546 83.2729 9.34546C80.8199 9.34546 78.7306 10.1831 77.0455 11.8334C76.0226 12.818 75.2733 14.0557 74.8722 15.4216L71.4554 17.6907C71.3621 15.3497 70.5165 13.3806 68.9371 11.8272C67.2644 10.18 65.1782 9.34546 62.7283 9.34546C60.2783 9.34546 58.1891 10.1831 56.5009 11.8334C54.8126 13.4837 53.9545 15.6122 53.9577 18.1408C53.9577 20.6694 54.8126 22.7979 56.5102 24.4545C57.2284 25.1702 58.0678 25.7516 58.9881 26.1736L55.1111 28.7709V33.9125L67.6219 25.5359L67.7152 25.4547C68.1474 25.1546 68.5546 24.8171 68.9308 24.4451L74.8069 20.6038C75.1863 22.0697 75.9604 23.4012 77.0455 24.4545C78.7306 26.1079 80.823 26.9487 83.2605 26.9487C85.7011 26.9487 87.7872 26.1048 89.4692 24.4482C91.1512 22.7886 92 20.6694 92 18.1314C92 15.5935 91.1606 13.4837 89.4848 11.8334V11.8272ZM65.7689 21.4977C65.0041 22.3353 64.0092 22.7448 62.7158 22.7448C61.4505 22.7448 60.4276 22.326 59.6721 21.5039C58.9166 20.6788 58.528 19.5411 58.5248 18.1408C58.5217 16.7374 58.9073 15.606 59.669 14.7746C60.4307 13.9432 61.4442 13.5275 62.7158 13.5275C63.9843 13.5275 65.0134 13.9463 65.7658 14.7683C66.5182 15.5935 66.91 16.7312 66.91 18.1314C66.91 19.5317 66.5307 20.6663 65.772 21.4977H65.7689ZM86.3073 21.4977C85.5456 22.3353 84.5476 22.7448 83.2542 22.7448C81.9857 22.7448 80.9629 22.326 80.2074 21.5039C79.4519 20.6819 79.0632 19.5411 79.0632 18.1377C79.0632 16.7343 79.4456 15.6029 80.2043 14.7715C80.9629 13.9401 81.964 13.5244 83.2511 13.5244C84.5196 13.5244 85.5456 13.9432 86.298 14.7652C87.0504 15.5904 87.4452 16.7281 87.4452 18.1283C87.4452 19.5317 87.0659 20.6632 86.3073 21.4946V21.4977Z" fill="#171D35"/>
<path d="M46.5675 13.2024V20.6194H42.2024C42.0469 20.6194 41.8884 20.6257 41.7329 20.6413V10.3082L37.2994 13.5369V22.1385C37.2994 22.9386 37.2403 24.4826 37.1191 25.0828C37.0165 25.6485 36.7802 26.183 36.4351 26.6424C36.1335 27.0144 35.7635 27.3269 35.3469 27.5613L31.2461 29.4304L31.2585 33.8C31.2585 33.8 36.488 31.4871 37.0693 31.2214C39.1742 30.3806 40.738 28.5615 41.2572 26.3424C41.3567 25.9704 41.4282 24.7233 41.506 24.3076L41.5402 24.317C41.7609 24.3482 41.9816 24.3608 42.2055 24.3576H51.0072V10.3082L46.5706 13.2024H46.5675Z" fill="#171D35"/>
<path d="M9.6755 21.5477C8.57179 21.2539 7.67017 20.8163 7.00172 20.2568C6.3426 19.7161 5.84826 19.0035 5.56845 18.1939C5.26065 17.0531 5.13007 15.8685 5.18604 14.6871V9.15479L0.478933 11.9397C0.379443 12.4335 0.29239 12.9336 0.214664 13.4399C0.0809745 14.2807 0.00946638 15.1278 0.000139232 15.9779C-0.00607887 17.3313 0.196009 18.6784 0.600186 19.9661C1.00125 21.2164 1.71323 22.3447 2.67081 23.2449C3.65327 24.1825 5.00571 24.9483 6.69703 25.5172C6.97996 25.6109 7.27843 25.6891 7.58933 25.7735L12.7255 21.9634C11.6964 21.9321 10.6704 21.7915 9.6724 21.5446L9.6755 21.5477Z" fill="#171D35"/>
<path d="M30.6337 14.3464C30.1953 12.3398 28.7185 10.727 26.7691 10.1144C25.6934 9.72366 24.3223 9.52988 22.6994 9.52988C21.6485 9.52988 20.5976 9.59551 19.5561 9.72679C18.583 9.85494 17.5788 10.03 16.5745 10.2425V21.9915H13.7422V26.3798H21.692V14.062H21.9066C22.006 14.062 22.1055 14.0588 22.205 14.0432C22.3201 14.0307 22.4382 14.0245 22.5563 14.0245C23.7689 14.0245 24.6363 14.3245 25.1369 14.9152C25.6374 15.506 25.8706 16.4624 25.8706 17.8252V26.3736H31.0254V17.7814C31.0378 16.6249 30.9073 15.4685 30.6368 14.3433L30.6337 14.3464Z" fill="#171D35"/>
<path d="M5.96631 28.3364L12.744 23.3105L12.7503 28.9647L5.96942 34V28.3364H5.96631Z" fill="#EC1D32"/>
<path d="M5.96631 28.3365C5.96631 28.4396 9.58213 31.3183 9.58213 31.3183L5.96942 34V28.6584" fill="#AD1E2E"/>
<path d="M46.0078 5.02592L52.7855 0V5.65416L46.0109 10.6895V5.02592H46.0078Z" fill="#171D35"/>
<path d="M46.0078 5.02594C46.0078 5.12596 49.6236 8.00461 49.6236 8.00461L46.0109 10.6895V5.34475" fill="#171D35"/>
</g>
<defs>
<clipPath id="clip0_4146_87877">
<rect width="92" height="48" fill="white"/>
</clipPath>
</defs>
</svg>
