<svg width="107" height="44" viewBox="0 0 160 90" fill="none" xmlns="http://www.w3.org/2000/svg">
<g clip-path="url(#clip0_2322_26447)">
<path d="M49.1338 16.5386C44.4231 16.5386 40.6436 20.3847 40.6436 25.055C40.6436 29.7254 44.4779 33.5715 49.1338 33.5715H57.7336V16.5386H49.1338ZM63.2112 39.121H49.1338C41.4105 39.121 35.166 32.8572 35.166 25.11C35.166 17.3627 41.4652 11.099 49.1338 11.099H63.2112V39.121Z" fill="#111111"/>
<path d="M127.408 16.5386C122.697 16.5386 118.918 20.3847 118.918 25.0551C118.918 29.7254 122.752 33.5715 127.408 33.5715H136.939V16.5386H127.408ZM142.472 39.121H127.463C119.74 39.121 113.495 32.8573 113.495 25.11C113.495 17.3628 119.794 11.099 127.463 11.099H136.994V0.00012207H142.472V39.121Z" fill="#111111"/>
<path d="M160 11.099H154.522V39.1759H160V11.099Z" fill="#111111"/>
<path d="M160 0.00012207H154.522V5.98913H160V0.00012207Z" fill="#111111"/>
<path d="M92.3522 39.121H85.3409C79.3156 39.121 74.3857 34.1759 74.3857 28.132V11.099H79.8633V28.132C79.8633 31.1539 82.3282 33.6265 85.3409 33.6265H92.3522C95.3649 33.6265 97.8298 31.1539 97.8298 28.132V11.099H103.307V28.132C103.307 34.1759 98.3775 39.121 92.3522 39.121Z" fill="#111111"/>
<path d="M17.4187 39.121H1.53372V33.6265H17.4187C19.7193 33.6265 21.6912 32.1979 22.5128 30.1649L0 24.1759V22.088C0 16.0441 4.92982 11.099 10.9552 11.099H26.8401V16.5935H10.9552C8.65457 16.5935 6.68264 18.0221 5.86101 20.055L28.3738 26.0441V28.132C28.3738 34.1759 23.444 39.121 17.4187 39.121Z" fill="#111111"/>
<path d="M113.441 89.5605H102.705C95.2002 89.5605 89.1201 83.4616 89.1201 75.9342C89.1201 67.8572 95.6384 61.3188 103.69 61.3188C111.743 61.3188 118.261 67.8572 118.261 75.9342V79.2309L101.664 79.1759V73.6814L112.509 73.7364C111.523 69.7803 107.963 66.8682 103.69 66.8682C98.7059 66.8682 94.5977 70.9342 94.5977 75.9891C94.5977 80.4946 98.2677 84.121 102.705 84.121H113.441V89.5605Z" fill="#D3FF01"/>
<path d="M79.7539 50.3848H74.2764V90.0002H79.7539V50.3848Z" fill="#D3FF01"/>
<path d="M49.1338 67.0331C44.4231 67.0331 40.6436 70.8792 40.6436 75.5496C40.6436 80.2199 44.4779 84.066 49.1338 84.066H57.7336V67.0331H49.1338ZM63.2112 89.5606H49.1338C41.4105 89.5606 35.166 83.2968 35.166 75.5496C35.166 67.8023 41.4105 61.5386 49.1338 61.5386H63.2112V89.5606Z" fill="#D3FF01"/>
<path d="M17.4187 89.5606H1.53372V84.066H17.4187C19.7193 84.066 21.6912 82.6375 22.5128 80.6045L0 74.6155V72.5276C0 66.4836 4.92982 61.5386 10.9552 61.5386H26.8401V67.0331H10.9552C8.65457 67.0331 6.68264 68.4617 5.86101 70.4946L28.3738 76.4836V78.5715C28.3738 84.6155 23.444 89.5606 17.4187 89.5606Z" fill="#D3FF01"/>
</g>
<defs>
<clipPath id="clip0_2322_26447">
<rect width="160" height="90" fill="#111111"/>
</clipPath>
</defs>
</svg>
